<?xml version="1.0" encoding="utf-8"?>
<!-- Generator: Adobe Illustrator 28.0.0, SVG Export Plug-In . SVG Version: 6.00 Build 0)  -->
<svg version="1.1" id="Layer_1" xmlns="http://www.w3.org/2000/svg" xmlns:xlink="http://www.w3.org/1999/xlink" x="0px" y="0px"
	 viewBox="0 0 566.93 566.93" style="enable-background:new 0 0 566.93 566.93;" xml:space="preserve">
<style type="text/css">
	.st0{fill:#FFFFFF;}
</style>
<g>
	<path class="st0" d="M334.62,218.63c0.34,0,0.67-0.02,1-0.06c2.74-0.34,5.3-2.01,7.21-4.72c0.48-0.68,0.91-1.42,1.28-2.18
		c0.62,0.62,1.31,1.19,2.1,1.7c4.04,2.61,10.16,3.44,14.05-0.89c3.88-4.32,3.99-12.09,0.27-17.71l-4.97,3.3
		c2.45,3.68,2.11,8.36,0.27,10.42c-2.24,2.49-6.33-0.11-6.37-0.14c-2.49-1.61-3.49-4.65-3.87-6.32c-0.06-0.47-0.15-0.95-0.25-1.42
		l-5.88,0.99c0.03,0.27,0.1,0.77,0.24,1.42c0.31,2.67-0.3,5.36-1.73,7.37c-0.91,1.28-2.06,2.12-3.07,2.25
		c-0.96,0.12-2.12-0.36-3.18-1.32c-1.95-1.77-3.06-4.66-2.98-7.75l-5.97-0.16c-0.13,4.8,1.72,9.41,4.93,12.32
		C329.76,217.61,332.23,218.63,334.62,218.63z"/>
	<circle class="st0" cx="439.47" cy="206.94" r="12.09"/>
	<circle class="st0" cx="405.27" cy="206.94" r="12.09"/>
	<circle class="st0" cx="473.66" cy="206.94" r="12.09"/>
	<circle class="st0" cx="212.43" cy="233.29" r="13.38"/>
	
		<ellipse transform="matrix(0.7071 -0.7071 0.7071 0.7071 -113.8285 191.7706)" class="st0" cx="174.57" cy="233.29" rx="13.38" ry="13.38"/>
	
		<ellipse transform="matrix(0.9959 -0.0906 0.0906 0.9959 -16.0328 26.24)" class="st0" cx="281.04" cy="189.74" rx="12.09" ry="12.09"/>
	<path class="st0" d="M472.29,238.09v39.29c-2.52,9.36-8.77,12.95-13.47,13.17c-5.76,0.24-10.68-3.98-13.14-11.36l-0.2-0.54
		c-0.22-0.54-0.42-1.07-0.61-1.6v-38.96h-1.27h-16.63h-1.27v39.1c-2.54,7.89-8.99,13.48-13.34,13.34l-0.32-0.01l-0.32,0.01
		c-4.39,0.18-10.87-5.47-13.44-13.36v-39.2h-11.75c-1.26-0.04-2.76-0.07-4.62-0.09c-6.44-0.08-10.22-0.06-14.6-0.03
		c-2.49,0.01-5.19,0.04-8.76,0.03l-10.53,0l-0.57,8.34c-0.95,14.01-3.79,27.83-8.44,41.08c-4.73,13.45-11.27,26.19-19.46,37.86
		l14.65,10.28c9.13-13.01,16.43-27.21,21.7-42.21c4.26-12.14,7.16-24.7,8.65-37.47c1,0,1.95-0.01,2.87-0.02
		c4.01-0.03,7.47-0.05,12.96,0.01v23.92l0.32,1.16c4.39,16.06,17.84,27.82,31.3,27.59c0.18,0,0.35,0.01,0.53,0.01
		c8.26,0,16.44-4.5,22.49-11.71c5.86,7.41,14.16,11.73,23.27,11.73c0.45,0,0.9-0.01,1.34-0.03c14.39-0.67,26.57-11.89,30.31-27.92
		l0.23-1v-41.42H472.29z"/>
	<path class="st0" d="M263.49,263.52c-1.13-3.16-2.84-7.94-1.59-13.55c1.18-5.32,4.42-8.93,6.19-10.57c1.71-1.51,4.5-3.44,8.29-4.43
		c0.1-0.03,0.2-0.05,0.3-0.08c0.26-0.06,0.51-0.12,0.76-0.17c0.11-0.02,0.22-0.04,0.32-0.06c0.15-0.03,0.3-0.05,0.45-0.07
		c0.32-0.05,0.64-0.1,0.96-0.13c0.16-0.02,0.32-0.04,0.48-0.05c0.32-0.03,0.65-0.05,0.97-0.06c0.28-0.01,0.56-0.01,0.83-0.01
		c0.21,0,0.42,0,0.64,0.01c0.26,0.01,0.52,0.02,0.77,0.04c0.11,0.01,0.21,0.02,0.32,0.03c3.08,0.28,5.47,1.19,6.66,1.74
		c3.64,1.67,6.08,4.13,7.51,5.95c2.03,2.82,3.38,5.88,4.01,9.1c2.03,10.42-4.25,19.15-6.22,21.57l13.89,11.29
		c3.21-3.95,13.42-18.24,9.9-36.29c-1.14-5.85-3.56-11.35-7.19-16.34l-0.17-0.22c-3.8-4.88-8.73-8.8-14.27-11.34
		c-2.44-1.12-6.26-2.51-11-3.14l0-0.01c-0.06-0.01-0.12-0.01-0.18-0.02c-0.86-0.11-1.74-0.19-2.66-0.24c-0.03,0-0.07,0-0.1,0
		c-0.89-0.05-1.81-0.06-2.76-0.04c-0.02,0-0.04,0-0.06,0c-0.9,0.02-1.82,0.07-2.76,0.16c-0.09,0.01-0.18,0.02-0.27,0.03
		c-0.76,0.08-1.54,0.18-2.32,0.32c-0.11,0.02-0.22,0.03-0.34,0.05c-0.17,0.03-0.35,0.07-0.53,0.1c-0.08,0.01-0.16,0.03-0.23,0.04
		c-0.62,0.12-1.27,0.27-1.96,0.44c-0.02,0.01-0.04,0.01-0.06,0.01c-0.03,0.01-0.06,0.02-0.09,0.03c-0.67,0.17-1.38,0.37-2.1,0.6
		c0,0,0,0,0,0c-3.58,1.14-7.72,3.02-11.76,6.17c-0.57,0.44-1.28,1.04-2.08,1.77c0,0-0.01,0.01-0.01,0.01l0,0
		c-3.74,3.43-9.41,10.02-11.61,19.93c-2.36,10.64,0.73,19.29,2.21,23.44c3.15,8.81,8.63,16.6,14.81,23.22
		c-3.35,1.47-12.59,5.33-23.54,8.16c-24.48,6.34-48.52,5.07-53.09,4.75c-48.65-3.41-79.98-16.27-88.21-36.21
		c-2.16-5.25-2.54-9.93-1.09-13.56c3.37-8.41,17.06-13.67,34.09-13.08l0.61-17.89c-25.3-0.84-44.97,8.45-51.32,24.31
		c-2.25,5.61-3.87,14.85,1.16,27.04c11.11,26.93,46.9,43.27,103.5,47.24c2.28,0.16,6.41,0.38,11.85,0.38
		c11.55,0,28.98-0.99,46.98-5.66c13.84-3.59,25.32-8.67,27.48-9.66c2.03-0.92,4.05-1.91,6.05-2.92c5.8,4.38,11.14,7.65,14.73,9.69
		l8.84-15.57C292.7,295.94,270.07,281.94,263.49,263.52z"/>
	<path class="st0" d="M119.1,371.95c-0.97-0.85-2.08-1.54-3.34-2.09c-1.26-0.55-2.59-1.01-3.99-1.39l-2.74-0.68
		c-1.74-0.43-2.98-0.93-3.7-1.49c-0.72-0.56-1.09-1.3-1.09-2.21c0-0.48,0.13-0.91,0.38-1.27c0.25-0.36,0.62-0.68,1.11-0.95
		c0.48-0.27,1.05-0.47,1.69-0.6c0.64-0.13,1.34-0.2,2.09-0.2c1.53,0,3.11,0.22,4.73,0.66c1.62,0.44,3.19,1.15,4.69,2.11l2.74-6.08
		c-0.99-0.62-1.95-1.1-2.88-1.45c-0.93-0.35-1.89-0.66-2.9-0.95c-1.01-0.28-2.05-0.5-3.14-0.64c-1.09-0.15-2.15-0.22-3.2-0.22
		c-1.83,0-3.49,0.22-4.99,0.66c-1.5,0.44-2.81,1.08-3.91,1.91c-1.1,0.83-1.95,1.84-2.56,3.02s-0.91,2.47-0.91,3.86
		c0,2.58,0.79,4.74,2.38,6.5c1.58,1.76,3.92,3.01,7.01,3.76l2.7,0.68c0.91,0.24,1.74,0.48,2.48,0.7c0.74,0.23,1.35,0.5,1.83,0.81
		c0.48,0.31,0.85,0.67,1.11,1.09c0.25,0.42,0.38,0.91,0.38,1.47c0,0.64-0.15,1.2-0.46,1.67c-0.31,0.47-0.74,0.87-1.31,1.19
		c-0.56,0.32-1.24,0.56-2.03,0.7s-1.67,0.22-2.64,0.22c-0.83,0-1.68-0.07-2.54-0.2c-0.86-0.13-1.7-0.3-2.54-0.5
		c-0.83-0.2-1.61-0.46-2.34-0.77c-0.72-0.31-1.53-0.74-2.42-1.31l-2.74,6.08c0.99,0.62,1.96,1.1,2.9,1.45
		c0.94,0.35,1.95,0.66,3.02,0.93c1.07,0.27,2.19,0.48,3.34,0.62c1.15,0.15,2.31,0.22,3.46,0.22c1.91,0,3.68-0.22,5.31-0.66
		c1.64-0.44,3.05-1.09,4.25-1.95c1.19-0.86,2.14-1.93,2.84-3.22c0.7-1.29,1.05-2.76,1.05-4.43c0-1.53-0.28-2.88-0.85-4.05
		C120.83,373.8,120.07,372.8,119.1,371.95z"/>
	<polygon class="st0" points="167.41,368.27 152.8,368.27 152.8,355.1 145.95,355.1 145.95,388.8 152.8,388.8 152.8,374.79 
		167.41,374.79 167.41,388.8 174.3,388.8 174.3,355.1 167.41,355.1 	"/>
	<path class="st0" d="M208.44,355.1l-12.48,33.7h7.21l2.74-7.69h12.8l2.78,7.69h7.21l-12.48-33.7H208.44z M208.2,374.63l4.11-11.47
		l4.11,11.47H208.2z"/>
	<path class="st0" d="M271.79,373.44c0.9-0.68,1.62-1.46,2.17-2.31c0.55-0.86,0.95-1.76,1.21-2.72c0.25-0.95,0.38-1.93,0.38-2.92
		c0-1.31-0.24-2.6-0.7-3.84c-0.47-1.25-1.21-2.36-2.23-3.34c-1.02-0.98-2.31-1.76-3.88-2.34c-1.57-0.58-3.44-0.87-5.62-0.87h-12.76
		v33.7h6.84v-12.88h4.95l7.97,12.88h7.73l-8.66-13.93C270.02,374.6,270.89,374.12,271.79,373.44z M267.94,367.7
		c-0.3,0.54-0.71,0.97-1.25,1.29c-0.54,0.32-1.22,0.54-2.05,0.66c-0.83,0.12-1.77,0.18-2.82,0.18h-4.63v-8.29h4.63
		c2.31,0,3.98,0.32,5.01,0.95c1.03,0.63,1.55,1.67,1.55,3.12C268.39,366.47,268.24,367.17,267.94,367.7z"/>
	<path class="st0" d="M321.79,373.44c0.9-0.68,1.62-1.46,2.17-2.31c0.55-0.86,0.95-1.76,1.21-2.72c0.25-0.95,0.38-1.93,0.38-2.92
		c0-1.31-0.24-2.6-0.7-3.84c-0.47-1.25-1.21-2.36-2.23-3.34c-1.02-0.98-2.31-1.76-3.88-2.34c-1.57-0.58-3.44-0.87-5.62-0.87h-12.76
		v33.7h6.84v-12.88h4.95l7.97,12.88h7.73l-8.66-13.93C320.03,374.6,320.89,374.12,321.79,373.44z M317.95,367.7
		c-0.3,0.54-0.71,0.97-1.25,1.29c-0.54,0.32-1.22,0.54-2.05,0.66c-0.83,0.12-1.77,0.18-2.82,0.18h-4.63v-8.29h4.63
		c2.31,0,3.98,0.32,5.01,0.95c1.03,0.63,1.55,1.67,1.55,3.12C318.39,366.47,318.24,367.17,317.95,367.7z"/>
	<path class="st0" d="M358.97,355.1l-12.48,33.7h7.21l2.74-7.69h12.8l2.78,7.69h7.21l-12.48-33.7H358.97z M358.73,374.63l4.11-11.47
		l4.11,11.47H358.73z"/>
	<polygon class="st0" points="400.88,388.8 407.73,388.8 407.73,374.79 421.3,374.79 421.3,368.27 407.73,368.27 407.73,361.54 
		422.75,361.54 422.75,355.1 400.88,355.1 	"/>
	<polygon class="st0" points="442.23,361.54 453.1,361.54 453.1,388.8 459.99,388.8 459.99,361.54 470.86,361.54 470.86,355.1 
		442.23,355.1 	"/>
</g>
</svg>
